<svg class="icon" viewBox="0 0 1024 1024" xmlns="http://www.w3.org/2000/svg" width="200" height="200"><path d="M504.686 522.971c3.657 3.658 10.971 10.972 21.943 10.972s25.6-3.657 25.6-3.657c-3.658 84.114-36.572 91.428-51.2 87.771-10.972 0-25.6-3.657-32.915-29.257-7.314-21.943-7.314-58.514-7.314-58.514s7.314 3.657 18.286 3.657c10.971 3.657 25.6-10.972 25.6-10.972zm131.657-54.857c0 14.629-10.972 25.6-29.257 25.6-14.629 0-29.257-10.971-29.257-25.6 0-14.628 10.971-25.6 29.257-25.6s29.257 10.972 29.257 25.6zm197.486 201.143c-7.315-7.314-14.629-14.628-25.6-14.628H753.37v-3.658c3.658-7.314 3.658-18.285 3.658-25.6V603.43c-3.658-14.629-14.629-25.6-32.915-25.6S691.2 592.457 691.2 607.086v3.657c0 10.971-7.314 25.6-18.286 36.571-10.971 10.972-21.943 14.629-25.6 14.629H603.43c-7.315 0-14.629 3.657-14.629 10.971v113.372c0 7.314 7.314 10.971 14.629 10.971h40.228l142.629 3.657c7.314 0 10.971-3.657 14.628-3.657l10.972-10.971v-3.657c14.628-21.943 29.257-87.772 29.257-91.429v-3.657c0-3.657 0-10.972-7.314-18.286zM716.8 610.743c0-7.314 3.657-10.972 7.314-10.972s7.315 3.658 7.315 7.315v18.285c0 7.315-3.658 18.286-3.658 25.6l-3.657 14.629v7.314c0 3.657 3.657 3.657 7.315 3.657h73.142c3.658 0 7.315 0 7.315 3.658v7.314c0 7.314-14.629 69.486-21.943 87.771l-3.657 3.657H650.97s-3.657 0-3.657-3.657v-91.428s0-3.657 3.657-3.657c18.286 0 32.915-10.972 43.886-21.943 14.629-14.629 21.943-32.915 21.943-47.543zm-84.114 76.8v87.771s0 3.657-3.657 3.657H614.4v-95.085l18.286 3.657c-3.657-3.657-3.657-3.657 0 0-3.657 0 0 0 0 0z" fill="#666"/><path d="m786.286 808.229-142.629-3.658H603.43c-10.972 0-18.286-7.314-18.286-14.628V676.57c0-10.971 7.314-18.285 18.286-18.285h43.885c3.657 0 10.972-3.657 21.943-14.629 10.972-10.971 18.286-21.943 18.286-32.914v-3.657c0-18.286 18.286-32.915 36.571-32.915s32.915 10.972 36.572 25.6v25.6c0 7.315 0 18.286-3.657 25.6h51.2c10.971 0 21.942 7.315 29.257 18.286 3.657 7.314 7.314 14.629 3.657 21.943v3.657c-3.657 10.972-14.629 73.143-25.6 91.429v3.657l-10.972 10.971c-3.657 3.657-10.971 7.315-18.285 7.315zm-142.629-10.972h142.629c3.657 0 10.971 0 14.628-3.657s7.315-7.314 10.972-7.314l3.657-3.657c10.971-21.943 21.943-80.458 25.6-91.429v-3.657c0-7.314 0-10.972-3.657-18.286-10.972-3.657-18.286-10.971-29.257-10.971h-51.2c-3.658 0-3.658 0-3.658-3.657v-3.658c3.658-7.314 3.658-18.285 3.658-25.6V603.43c-3.658-10.972-14.629-21.943-29.258-21.943-18.285 0-32.914 10.971-32.914 25.6v3.657c0 10.971-7.314 25.6-21.943 40.228-7.314 7.315-18.285 14.629-25.6 14.629H603.43c-3.658 0-10.972 3.657-10.972 7.314v113.372c0 3.657 3.657 7.314 10.972 7.314l40.228 3.657c-3.657 0 0 0 0 0zm142.629-10.971H654.629c-3.658 0-7.315-3.657-7.315-7.315v-91.428c0-3.657 3.657-3.657 3.657-7.314 10.972-3.658 25.6-10.972 36.572-25.6 10.971-14.629 18.286-29.258 21.943-43.886v-3.657c0-7.315 7.314-10.972 10.971-10.972 7.314 0 10.972 3.657 10.972 10.972v18.285c0 10.972-3.658 18.286-3.658 29.258v14.628l3.658 3.657h73.142c3.658 0 7.315 3.657 10.972 7.315 0 0 3.657 3.657 3.657 7.314 0 7.314-14.629 69.486-21.943 87.771v3.657c0 3.658-3.657 3.658-3.657 3.658-3.657 3.657-3.657 3.657-7.314 3.657zm-128-10.972h131.657l3.657-3.657V768c7.314-18.286 21.943-80.457 21.943-84.114v-3.657l-3.657-3.658h-76.8c-3.657 0-7.315-3.657-10.972-3.657-3.657-3.657-3.657-7.314 0-10.971l7.315-14.629v-36.571c0-3.657-3.658-3.657-3.658-3.657-3.657 0-3.657 3.657-7.314 3.657v3.657c0 14.629-7.314 32.914-21.943 47.543-10.971 10.971-25.6 21.943-40.228 25.6v87.771zm0-87.771zm-32.915 95.086H614.4s-3.657 0-3.657-3.658l-3.657-3.657V680.23h18.285s3.658 0 3.658 3.657l3.657 3.657v87.771c0 3.657-3.657 7.315-7.315 7.315zm-10.971-7.315zm0 0h10.971v-87.771h-7.314l-3.657 87.771zM442.514 475.429c0-3.658 0-7.315-3.657-10.972l-51.2-32.914c-3.657-3.657-14.628-3.657-18.286 0-3.657 7.314-3.657 14.628 3.658 18.286l32.914 21.942-29.257 14.629c-7.315 3.657-10.972 10.971-7.315 14.629 3.658 3.657 7.315 7.314 10.972 7.314H384l51.2-21.943c3.657-3.657 7.314-7.314 7.314-10.971z" fill="#666"/><path d="M493.714 822.857c-149.943 0-277.943-113.371-292.571-266.971C186.514 394.97 307.2 252.343 468.114 237.714c160.915-14.628 303.543 106.057 318.172 266.972 0 10.971-7.315 18.285-18.286 18.285s-18.286-7.314-18.286-18.285c-14.628-138.972-138.971-241.372-277.943-230.4-142.628 14.628-245.028 138.971-234.057 277.943C248.686 691.2 373.03 797.257 515.657 786.286c10.972 0 18.286 7.314 18.286 18.285s-7.314 18.286-18.286 18.286h-21.943z" fill="#666"/></svg>